<?xml version="1.0" encoding="iso-8859-1"?>
<!-- Generator: Adobe Illustrator 19.0.0, SVG Export Plug-In . SVG Version: 6.00 Build 0)  -->
<svg version="1.1" id="Capa_1" xmlns="http://www.w3.org/2000/svg" xmlns:xlink="http://www.w3.org/1999/xlink" x="0px" y="0px"
	 viewBox="0 0 456 456" style="enable-background:new 0 0 456 456;" xml:space="preserve">
<g>
	<g>
		<path d="M426.348,89.998c-0.096,0-0.192,0.001-0.288,0.002H319V55.476C319,38.934,305.758,25,289.216,25h-120.8
			C151.681,25.208,138.175,38.741,138,55.476V90H29.94c-16.347-0.188-29.75,12.911-29.938,29.258C0.001,119.354,0,119.45,0,119.546
			v280.978C0,417.066,13.4,431,29.94,431h396.12c16.54,0,29.94-13.934,29.94-30.476V119.546
			C455.971,103.198,442.696,89.969,426.348,89.998z M158,55.476c0.161-5.693,4.72-10.28,10.412-10.476h120.8
			C294.73,45,299,49.961,299,55.476V90H158V55.476z M436,400.524c0,5.515-4.426,10.476-9.94,10.476H29.94
			c-5.514,0-9.94-4.961-9.94-10.476V119.546c0-5.514,4.426-9.546,9.94-9.546h396.12c5.514,0,9.94,4.032,9.94,9.546V400.524z"/>
	</g>
</g>
<g>
	<g>
		<path d="M282.884,250H239v-44.349c0-5.523-4.477-10-10-10c-5.523,0-10,4.477-10,10V250h-44.256c-5.523,0-10,4.477-10,10
			c0,5.523,4.477,10,10,10H219v43.791c0,5.523,4.477,10,10,10c5.523,0,10-4.477,10-10V270h43.884c5.523,0,10-4.477,10-10
			C292.884,254.477,288.407,250,282.884,250z"/>
	</g>
</g>
<g>
	<g>
		<path d="M389,140H69c-9.941,0-18,8.059-18,18v205c0,9.941,8.059,18,18,18h320c9.941,0,18-8.059,18-18V158
			C407,148.059,398.941,140,389,140z M387,361H71V160h316V361z"/>
	</g>
</g>
<g>
</g>
<g>
</g>
<g>
</g>
<g>
</g>
<g>
</g>
<g>
</g>
<g>
</g>
<g>
</g>
<g>
</g>
<g>
</g>
<g>
</g>
<g>
</g>
<g>
</g>
<g>
</g>
<g>
</g>
</svg>
