<svg height="512pt" viewBox="0 -13 512 512" width="512pt" xmlns="http://www.w3.org/2000/svg"><path d="m259.226562 126.726562c8.976563 35.488282 11.308594 88.65625-23.269531 148.699219h73.203125c62.835938-73.054687 53.234375-163.855469 47.152344-196.273437-5.917969-.609375-11.921875-.925782-18-.925782h-98.53125c6.773438 12 14.375 28.472657 19.445312 48.5zm0 0"/><path d="m390.554688 141.1875c-2.164063 50.472656-17.242188 96.464844-43.941407 134.824219 16.851563 2.339843 31.480469 11.691406 40.855469 25.007812 43.027344-17.585937 71.980469-47.28125 86.148438-88.460937 8.480468-24.640625 9.226562-46.660156 8.953124-57.273438-22.277343-33.152344-55.671874-58.230468-94.796874-69.875 2.066406 14.371094 3.730468 33.660156 2.78125 55.777344zm0 0"/><path d="m230.449219 135.332031c-7.179688-29.363281-21.035157-50.007812-26.300781-57.105469h-150.035157c-13.296875 0-24.113281-10.820312-24.113281-24.113281 0-13.296875 10.816406-24.113281 24.113281-24.113281h230.886719v-30h-230.886719c-29.839843 0-54.113281 24.273438-54.113281 54.113281 0 25.0625 17.128906 46.191407 40.292969 52.316407.269531 5.988281.730469 11.84375 1.367187 17.570312h-41.660156v30h46.980469c2.804687 11.210938 6.449219 21.761719 10.925781 31.613281 10.011719 22.023438 24.191406 40.65625 42.152344 55.375 31.160156 25.546875 64.820312 32.238281 77.84375 33.925781 2.703125.351563 4.359375.464844 4.664062.484376l.464844.027343h17.523438c31.332031-45.972656 41.398437-93.082031 29.894531-140.09375zm-47.449219 23.082031h-30v-30h30zm0 0"/><path d="m501.984375 222.320312c-12.074219 35.09375-39.898437 80.804688-103.933594 106.777344.226563 2.105469.347657 4.246094.347657 6.414063 0 25.351562-15.789063 47.070312-38.042969 55.878906-5.382813-31.878906-33.167969-56.242187-66.554688-56.242187h-72.984375v22.933593c0 21.195313 9.824219 40.128907 25.152344 52.519531-15.328125 12.386719-25.152344 31.320313-25.152344 52.515626v22.933593h72.984375c34.839844 0 63.597657-26.53125 67.144531-60.449219h.371094v-1.527343c84.9375-11.292969 150.683594-84.1875 150.683594-172.164063 0-15.222656-1.976562-29.996094-5.675781-44.078125-1.210938 4.714844-2.640625 9.558594-4.339844 14.488281zm0 0"/></svg>