<svg xmlns="http://www.w3.org/2000/svg" viewBox="0 0 300 100"><defs><style>.cls-1{fill:#000;}</style></defs><title>logo-heroku</title><g id="logos"><g id="Page-1"><g id="main"><g id="nav"><path id="logo" class="cls-1" d="M81.9,15.17h-50a6.24,6.24,0,0,0-6.27,6.27V78.56a6.24,6.24,0,0,0,6.27,6.27h50a6.24,6.24,0,0,0,6.27-6.27V21.44A6.24,6.24,0,0,0,81.9,15.17Zm2.79,63.39a2.75,2.75,0,0,1-2.79,2.79h-50a2.75,2.75,0,0,1-2.79-2.79V21.44a2.75,2.75,0,0,1,2.79-2.79h50a2.75,2.75,0,0,1,2.79,2.79ZM41.33,74.38l7.83-7-7.83-7ZM69.54,46.17A11.4,11.4,0,0,0,61.18,43a41.48,41.48,0,0,0-13.06,2.44V25.62h-7V55.75L46,53.48s8-3.65,15-3.65c3.48,0,4.35,1.91,4.35,3.65v20.9h7V53.48A9.35,9.35,0,0,0,69.54,46.17Zm-9.23-9.23h7A21,21,0,0,0,72.5,25.62h-7A25.63,25.63,0,0,1,60.31,36.94ZM252.75,53.31V38h7V53.31c0,3.48,1.22,5.22,4,5.22s3.83-1.56,3.83-5.22V38h6.79v15.5c0,6.8-3.31,10.8-10.8,10.8C256.06,64.11,252.75,60.1,252.75,53.31ZM223.49,38h7v9.41L237.6,38h8l-8.71,10.1,9.41,15.68h-7.84l-6.09-10.28-1.92,2.27v8h-7ZM190.4,50.7c0-9.41,6.45-13.41,12.72-13.41s12.71,4,12.71,13.41-6.44,13.41-12.71,13.41S190.4,60.28,190.4,50.7Zm18.29,0c0-4.71-2.09-7.67-5.75-7.67s-5.74,3-5.74,7.67,2.09,7.83,5.74,7.83S208.69,55.57,208.69,50.7ZM162.37,38h10.1c6.61,0,10.62,2.27,10.62,8.36,0,4-1.74,6.45-5.05,7.49l5.4,9.93h-7.32l-5.05-8.88h-1.91v8.88h-6.79V38Zm9.92,11.5c2.79,0,4.18-.87,4.18-3s-1.22-3-4.18-3h-3v5.92ZM135.72,38h18.46v5.75H142.69v4.18h8.18v5.4h-8.18V58h12v5.57h-19ZM104.2,38h7v9.58h8.54V38h7V63.76h-7V53.31h-8.54V63.76h-7Z"/></g></g></g></g></svg>