<svg width="160" height="50" xmlns="http://www.w3.org/2000/svg">

 <g>
  <title>background</title>
  <rect fill="none" id="canvas_background" height="402" width="582" y="-1" x="-1"/>
 </g>
 <g>
  <title>Layer 1</title>
  <path id="svg_1" fill="#000000" d="m49.48892,13.70842c-0.00292,-0.49775 -0.00842,-0.99525 -0.02217,-1.49359c-0.029,-1.084 -0.09308,-2.17783 -0.28575,-3.25025c-0.1955,-1.08908 -0.51508,-2.10175 -1.01875,-3.09108c-0.49442,-0.97158 -1.14075,-1.86067 -1.91175,-2.63167c-0.77083,-0.771 -1.65992,-1.41725 -2.63192,-1.91191c-0.9885,-0.50309 -2.00133,-0.82259 -3.08941,-1.01809c-1.073,-0.19325 -2.16684,-0.25691 -3.25167,-0.28625c-0.49808,-0.0135 -0.99567,-0.01916 -1.49358,-0.02225c-0.591,-0.00333 -1.18242,-0.00333 -1.77325,-0.00333l-13.10134,0l-5.42758,0c-0.59142,0 -1.18217,0 -1.773,0.00342c-0.49808,0.00308 -0.99625,0.00875 -1.49358,0.02225c-0.27117,0.00733 -0.54292,0.01683 -0.81484,0.02991c-0.81566,0.03934 -1.63258,0.11142 -2.43691,0.25634c-0.81609,0.14666 -1.58992,0.363 -2.34275,0.67425c-0.25092,0.10366 -0.49959,0.218 -0.74675,0.34375c-0.729,0.371 -1.4115,0.82725 -2.03225,1.35741c-0.20692,0.17675 -0.407,0.36167 -0.59967,0.55442c-0.77117,0.771 -1.4175,1.66008 -1.91192,2.63167c-0.50366,0.98933 -0.82283,2.002 -1.0185,3.09108c-0.1925,1.07242 -0.2565,2.16625 -0.28566,3.25025c-0.01367,0.49833 -0.01942,0.99583 -0.02267,1.49358c-0.00375,0.59117 -0.00325,1.18242 -0.00325,1.77342l0,8.06825l0,10.46042c0,0.59158 -0.00058,1.18225 0.00325,1.77383c0.00325,0.49775 0.009,0.99525 0.02267,1.49275c0.02916,1.08458 0.09308,2.17867 0.28566,3.25058c0.19567,1.08875 0.51484,2.10234 1.0185,3.09142c0.49442,0.97183 1.14075,1.86067 1.91192,2.63133c0.77058,0.77134 1.65992,1.4175 2.632,1.9125c0.98858,0.50317 2.00133,0.82225 3.08967,1.01775c1.07233,0.193 2.167,0.25717 3.25158,0.28617c0.49733,0.01325 0.9955,0.01917 1.49358,0.022c0.59084,0.00425 1.18159,0.00367 1.773,0.00367l18.52884,0c0.59083,0 1.18225,0.00058 1.77316,-0.00367c0.49792,-0.00283 0.9955,-0.00875 1.49359,-0.022c1.08483,-0.029 2.17866,-0.09325 3.25166,-0.28617c1.08809,-0.1955 2.10092,-0.51466 3.08942,-1.01775c0.972,-0.49491 1.86108,-1.14116 2.63192,-1.9125c0.771,-0.77075 1.41741,-1.6595 1.91175,-2.63133c0.50366,-0.98908 0.82325,-2.00258 1.01875,-3.09142c0.19266,-1.07191 0.25675,-2.166 0.28575,-3.25058c0.01366,-0.4975 0.01916,-0.99492 0.02216,-1.49275c0.00384,-0.59158 0.0035,-1.18225 0.0035,-1.77383l0,-18.52867c0.00009,-0.591 0.00034,-1.18225 -0.00341,-1.77333z"/>
  <path id="svg_2" fill="#fff" d="m39.21717,30.55058c-0.00117,-0.0015 -0.00225,-0.00258 -0.0035,-0.004c0.05475,-0.18633 0.11125,-0.3715 0.15916,-0.5625c2.05417,-8.18408 -2.95925,-17.85991 -11.443,-22.9545c3.71775,5.03992 5.36159,11.14442 3.90109,16.48292c-0.13025,0.47617 -0.28684,0.93317 -0.45992,1.37733c-0.18783,-0.12341 -0.4245,-0.2635 -0.74233,-0.43875c0,0 -8.43909,-5.21058 -17.58567,-14.42683c-0.24,-0.24192 4.87733,7.31417 10.68492,13.44992c-2.73617,-1.53559 -10.3615,-7.08367 -15.18884,-11.50192c0.59309,0.98908 1.2985,1.9415 2.07392,2.85842c4.03125,5.11241 9.2885,11.42033 15.58692,16.26408c-4.42534,2.70817 -10.67842,2.91875 -16.90434,0.00283c-1.53991,-0.72166 -2.98758,-1.59241 -4.32766,-2.58175c2.63541,4.21542 6.69433,7.85242 11.63441,9.97567c5.89125,2.53175 11.74967,2.36008 16.113,0.0415l-0.00341,0.005c0.01991,-0.01258 0.04525,-0.02633 0.06591,-0.03908c0.17917,-0.09634 0.357,-0.19442 0.53092,-0.298c2.09642,-1.08817 6.23725,-2.19217 8.45983,2.13233c0.54434,1.05833 1.701,-4.55033 -2.55141,-9.78267z"/>
  <path id="svg_3" d="m68.2755,32.11858c0.38667,3.43359 3.6615,5.68475 8.2095,5.68475c4.32117,0 7.43658,-2.25116 7.43658,-5.36608c0,-2.68358 -1.88733,-4.32167 -6.23133,-5.41275l-4.207,-1.06875c-6.04917,-1.50108 -8.77833,-4.23033 -8.77833,-8.73267c0,-5.54875 4.84391,-9.39241 11.73491,-9.39241c6.6855,0 11.43859,3.866 11.59792,9.43808l-4.43433,0c-0.3415,-3.41125 -3.11592,-5.50408 -7.27725,-5.50408c-4.11667,0 -6.98192,2.11516 -6.98192,5.20775c0,2.4105 1.77417,3.84366 6.1405,4.95808l3.50208,0.90942c6.77692,1.6605 9.55125,4.29833 9.55125,9.05141c0,6.04917 -4.79875,9.84717 -12.43983,9.84717c-7.09508,0 -11.939,-3.77567 -12.30283,-9.61975l4.48008,0l0,-0.00017zm48.43183,9.07375l-4.45766,0l-5.20775,-18.1475l-0.09084,0l-5.18491,18.1475l-4.45717,0l-6.59517,-23.76525l4.32067,0l4.59367,19.08025l0.09133,0l5.18492,-19.08025l4.18416,0l5.23059,19.08025l0.09133,0l4.59375,-19.08025l4.275,0l-6.57192,23.76525zm9.45025,-30.1555c0,-1.43208 1.18292,-2.59216 2.61559,-2.59216c1.4555,0 2.63791,1.16008 2.63791,2.59216c0,1.43309 -1.18241,2.61559 -2.63791,2.61559c-1.43267,0 -2.61559,-1.18242 -2.61559,-2.61559zm0.45517,6.39025l4.3435,0l0,23.76525l-4.3435,0l0,-23.76525zm32.70858,3.50259l0,-3.50267l-4.59375,0l0,-5.68475l-4.32116,0l0,5.68475l-3.52492,0l-4.77792,0l0,-2.09183c0.02234,-2.11517 0.84134,-3.00225 2.79725,-3.00225c0.63634,0 1.27325,0.069 1.7965,0.15933l0,-3.41125c-0.77341,-0.11367 -1.47833,-0.18167 -2.29683,-0.18167c-4.63942,0 -6.59517,1.9335 -6.59517,6.36784l0,2.15983l-3.31991,0l0,3.50267l3.31991,0l0,20.26258l4.32067,0l0,-20.26258l4.75558,0l3.52492,0l0,14.03175c0,4.59375 1.75133,6.36683 6.29933,6.36683c0.97792,0 2.09234,-0.068 2.59275,-0.18167l0,-3.54725c-0.29583,0.04567 -1.16016,0.11367 -1.63758,0.11367c-2.02383,0 -2.93325,-0.95508 -2.93325,-3.09258l0,-13.69075l4.59358,0z"/>
 </g>
</svg>